# xmcd
#
# Track frame offsets: 
#        150
#        15967
#        32798
#        50355
#        70541
#        85257
#        105886
#        121350
#        135583
#        156030
#        167617
#        180729
#        197858
#
# Disc length: 2996 seconds
#
# Revision: 0
# Processed by: cddbd v1.5.2PL0 Copyright (c) Steve Scherf et al.
# Submitted via: ExactAudioCopy v1.0b3
#
DISCID=990bb20d
DTITLE=Irvin Blais - Elle
DYEAR=2012
DGENRE=Country
TTITLE0=Je n'viendrai pu
TTITLE1=Juste entendre ton coeur
TTITLE2=Loin d'che nous
TTITLE3=Papa, papy d'amour
TTITLE4=Nos bobos
TTITLE5=On s'parle même pu
TTITLE6=Oui je t'aime
TTITLE7=Une mère
TTITLE8=Elle
TTITLE9=L'Abitibi
TTITLE10=Un bon p'tit beat
TTITLE11=Tu peux partir
TTITLE12=L'intimidation
EXTD=
EXTT0=
EXTT1=
EXTT2=
EXTT3=
EXTT4=
EXTT5=
EXTT6=
EXTT7=
EXTT8=
EXTT9=
EXTT10=
EXTT11=
EXTT12=
PLAYORDER=
